<svg width="35" height="32" viewBox="0 0 35 32" fill="none" xmlns="http://www.w3.org/2000/svg">
    <path d="M25.4748 0H9.31844C8.8138 0 8.40479 0.409087 8.40479 0.913651V12.2336C8.40479 12.7382 8.81387 13.1473 9.31844 13.1473H16.0336L17.3966 14.5103L18.7596 13.1473H25.4747C25.9793 13.1473 26.3884 12.7382 26.3884 12.2336V0.913651C26.3885 0.409087 25.9794 0 25.4748 0Z" fill="#FCE476"/>
    <path d="M15.8971 8.60674C15.6616 8.3144 15.2337 8.2684 14.9416 8.50372C14.6492 8.73919 14.6032 9.16696 14.8385 9.45923C15.2965 10.0279 15.9675 10.3371 16.6249 10.4732V10.522C16.6249 10.8973 16.9292 11.2016 17.3045 11.2016C17.679 11.2016 17.9827 10.8986 17.984 10.5244C19.3742 10.3315 19.9831 9.41527 20.0872 8.59628C20.2339 7.44112 19.4796 6.33155 18.2528 5.89793C18.159 5.86477 18.0695 5.83283 17.9841 5.80212V3.87859C18.187 3.95158 18.3288 4.05989 18.4016 4.16366C18.6172 4.47088 19.0411 4.54516 19.3482 4.32954C19.6554 4.11399 19.7297 3.69015 19.5141 3.38293C19.216 2.95821 18.681 2.6022 17.9841 2.47832V2.38658C17.9841 2.01133 17.6798 1.70703 17.3045 1.70703C16.9293 1.70703 16.625 2.01133 16.625 2.38658V2.5284C16.5406 2.54804 16.455 2.5708 16.3684 2.5969C15.5584 2.84086 14.9471 3.62696 14.8817 4.50867C14.817 5.38073 15.2806 6.13822 16.1219 6.53494C16.234 6.58781 16.4065 6.65977 16.625 6.7454V9.07033C16.3346 8.97472 16.0716 8.82338 15.8971 8.60674ZM18.7389 8.4251C18.6936 8.78152 18.4236 9.03384 17.9841 9.14216V7.25574C18.5675 7.53591 18.7875 8.0419 18.7389 8.4251ZM16.237 4.60924C16.2568 4.34163 16.415 4.08572 16.625 3.95905V5.2665C16.3466 5.11143 16.216 4.89071 16.237 4.60924Z" fill="#101010"/>
    <path d="M31.967 22.1035H31.7832C32.593 21.2816 33.0935 20.1542 33.0935 18.9121C33.0935 16.4029 31.0512 14.3616 28.541 14.3616C26.0307 14.3616 23.9884 16.4029 23.9884 18.9121C23.9884 20.1542 24.4888 21.2815 25.2988 22.1035H25.115C23.5568 22.1035 22.2891 23.3712 22.2891 24.9294V25.5458C21.8613 25.2849 21.3591 25.1345 20.8224 25.1345H20.6386C21.4485 24.3126 21.949 23.1852 21.949 21.9431C21.949 19.4339 19.9067 17.3926 17.3964 17.3926C14.8862 17.3926 12.8438 19.4339 12.8438 21.9431C12.8438 23.1852 13.3443 24.3125 14.1542 25.1345H13.9704C13.4337 25.1345 12.9315 25.2849 12.5037 25.5458V24.9294C12.5037 23.3712 11.236 22.1035 9.67784 22.1035H9.49402C10.3039 21.2816 10.8044 20.1542 10.8044 18.9121C10.8044 16.4029 8.76208 14.3616 6.25183 14.3616C3.74159 14.3616 1.69928 16.4029 1.69928 18.9121C1.69928 20.1542 2.19969 21.2815 3.00965 22.1035H2.82583C1.26763 22.1035 0 23.3712 0 24.9294V28.2894C0 28.6646 0.304301 28.9689 0.679547 28.9689H11.1446V31.3204C11.1446 31.6957 11.4489 32 11.8241 32H22.9687C23.3439 32 23.6482 31.6957 23.6482 31.3204V28.9689H34.1133C34.4885 28.9689 34.7928 28.6646 34.7928 28.2894V24.9294C34.7928 23.3712 33.5252 22.1035 31.967 22.1035ZM25.3475 18.9121C25.3475 17.1523 26.7801 15.7207 28.541 15.7207C30.3019 15.7207 31.7344 17.1523 31.7344 18.9121C31.7344 20.6718 30.3019 22.1035 28.541 22.1035C26.7801 22.1035 25.3475 20.6718 25.3475 18.9121ZM14.2029 21.9431C14.2029 20.1834 15.6355 18.7517 17.3964 18.7517C19.1573 18.7517 20.5899 20.1834 20.5899 21.9431C20.5899 23.7029 19.1573 25.1346 17.3964 25.1346C15.6355 25.1346 14.2029 23.7028 14.2029 21.9431ZM3.05837 18.9121C3.05837 17.1523 4.49092 15.7207 6.25183 15.7207C8.01274 15.7207 9.4453 17.1523 9.4453 18.9121C9.4453 20.6718 8.01274 22.1035 6.25183 22.1035C4.49092 22.1035 3.05837 20.6718 3.05837 18.9121ZM1.35909 24.9294C1.35909 24.1206 2.0171 23.4626 2.82583 23.4626H9.67784C10.4866 23.4626 11.1446 24.1206 11.1446 24.9294V27.6098H1.35909V24.9294ZM22.2891 30.6409H12.5037V27.9604C12.5037 27.1517 13.1617 26.4937 13.9704 26.4937H20.8224C21.6311 26.4937 22.2891 27.1517 22.2891 27.9604V30.6409ZM33.4337 27.6098H23.6482V24.9294C23.6482 24.1206 24.3062 23.4626 25.115 23.4626H31.967C32.7757 23.4626 33.4337 24.1206 33.4337 24.9294V27.6098Z" fill="#101010"/>
</svg>
