<svg width="32" height="32" viewBox="0 0 32 32" fill="none" xmlns="http://www.w3.org/2000/svg">
    <path d="M11.5621 27.1154C15.2922 27.1154 18.3161 24.0916 18.3161 20.3614C18.3161 16.6313 15.2922 13.6074 11.5621 13.6074C7.83198 13.6074 4.80811 16.6313 4.80811 20.3614C4.80811 24.0916 7.83198 27.1154 11.5621 27.1154Z" fill="#FCE476"/>
    <path d="M12.4614 19.8477C12.3811 19.8193 12.3044 19.7919 12.2309 19.7656V18.0736C12.3983 18.1375 12.5155 18.2286 12.5769 18.3162C12.7752 18.5988 13.165 18.6671 13.4476 18.4689C13.7301 18.2706 13.7985 17.8808 13.6003 17.5982C13.3327 17.217 12.8541 16.8968 12.2309 16.7828V16.7136C12.2309 16.3685 11.9511 16.0886 11.6059 16.0886C11.2608 16.0886 10.9809 16.3685 10.9809 16.7136V16.8284C10.9088 16.8454 10.8358 16.865 10.7619 16.8872C10.0295 17.1078 9.47675 17.8184 9.41763 18.6154C9.35906 19.4041 9.77819 20.0891 10.5386 20.4477C10.6376 20.4944 10.7892 20.5577 10.9809 20.6331V22.6861C10.7314 22.6009 10.5065 22.4687 10.3559 22.2818C10.1394 22.0129 9.74588 21.9706 9.47713 22.1871C9.20825 22.4036 9.16594 22.7971 9.38238 23.0659C9.79275 23.5754 10.3922 23.8541 10.9809 23.9781V24.0092C10.9809 24.3544 11.2608 24.6342 11.6059 24.6342C11.9459 24.6342 12.2226 24.3626 12.2307 24.0244C13.2681 23.8705 14.0002 23.2023 14.1168 22.2842C14.2493 21.2411 13.5686 20.2391 12.4614 19.8477ZM10.6642 18.7079C10.6809 18.4829 10.8086 18.2674 10.9809 18.1521V19.2692C10.753 19.1341 10.6466 18.9456 10.6642 18.7079ZM12.8768 22.1268C12.8378 22.4342 12.607 22.6536 12.2309 22.7517V21.1051C12.7305 21.3551 12.9191 21.7937 12.8768 22.1268Z" fill="#101010"/>
    <path d="M31.375 20.3186H23.1231C23.0829 18.5216 22.2602 16.0503 20.8518 13.5066C19.6604 11.3548 18.1911 9.4025 16.7136 7.9875C16.8905 7.87713 17.0082 7.68075 17.0082 7.45687V4.04425C17.0082 3.69913 16.7284 3.41925 16.3832 3.41925H15.5259C15.554 3.3825 15.5815 3.3465 15.6081 3.31188C16.2449 2.48056 16.9666 1.53831 17.1791 0.797188C17.2331 0.6085 17.1954 0.4055 17.0773 0.248875C16.9592 0.0921875 16.7744 0 16.5782 0H6.54644C6.35019 0 6.16538 0.0921875 6.04731 0.248812C5.92925 0.4055 5.89162 0.608562 5.94562 0.797125C6.158 1.53819 6.87969 2.48044 7.51644 3.31163C7.543 3.34631 7.57063 3.38238 7.59875 3.41919H6.74144C6.39631 3.41919 6.11644 3.69906 6.11644 4.04419V7.45681C6.11644 7.683 6.23663 7.88112 6.41663 7.99087C4.93931 9.40812 3.46881 11.3639 2.27506 13.5199C0.82925 16.1311 0 18.6589 0 20.4554C0 23.7088 1.15606 26.6547 3.25531 28.7505C5.35419 30.8459 8.30437 32 11.5623 32C15.1698 32 18.3021 30.6255 20.4094 28.1724V31.375C20.4094 31.7201 20.6893 32 21.0344 32H31.375C31.7201 32 32 31.7201 32 31.375V20.9436C32 20.5984 31.7201 20.3186 31.375 20.3186ZM21.6594 25.0457H30.75V27.2728H21.6594V25.0457ZM30.75 23.7957H21.6594V21.5685H30.75V23.7957ZM8.50881 2.55156C8.20813 2.15906 7.84231 1.68144 7.5615 1.25H15.5632C15.2824 1.6815 14.9164 2.15919 14.6158 2.55175C14.33 2.92481 14.1216 3.19919 13.9768 3.41925H9.14787C9.003 3.19919 8.79456 2.92475 8.50881 2.55156ZM7.36644 4.66925H15.7583V6.83187H7.36644V4.66925ZM11.5623 30.75C5.49062 30.75 1.25 26.5168 1.25 20.4554C1.25 18.8876 2.042 16.5213 3.36856 14.1254C4.73081 11.6653 6.45706 9.49319 8.10456 8.16613C8.13656 8.14038 8.16525 8.11206 8.19081 8.08181H12.3997L11.4908 9.62369C11.3154 9.92106 11.4144 10.3042 11.7117 10.4795C12.0091 10.6549 12.3923 10.5558 12.5675 10.2586L13.2904 9.03231L14.8426 12.4621C14.9471 12.6929 15.1744 12.8296 15.4124 12.8296C15.4986 12.8295 15.5861 12.8116 15.6697 12.7738C15.9841 12.6314 16.1238 12.2611 15.9814 11.9467L14.2323 8.08181H14.9411C14.9664 8.11163 14.9948 8.1395 15.0264 8.16494C16.6745 9.48975 18.3992 11.6574 19.7582 14.112C21.0654 16.4731 21.8307 18.7233 21.8727 20.3185H21.0343C20.6892 20.3185 20.4093 20.5984 20.4093 20.9435V26.0404C18.6175 29.0339 15.3948 30.75 11.5623 30.75ZM30.75 30.75H21.6594V28.5228H30.75V30.75Z" fill="#101010"/>
</svg>
