<svg width="34" height="32" viewBox="0 0 34 32" fill="none" xmlns="http://www.w3.org/2000/svg">
    <path d="M16.7158 13.8066C20.5484 13.8066 23.6553 10.7159 23.6553 6.90329C23.6553 3.09071 20.5484 0 16.7158 0C12.8833 0 9.77637 3.09071 9.77637 6.90329C9.77637 10.7159 12.8833 13.8066 16.7158 13.8066Z" fill="#FCE476"/>
    <path d="M15.4241 8.7676C15.1971 8.48728 14.7859 8.44419 14.5057 8.67103C14.2255 8.89799 14.1823 9.3091 14.4092 9.58935C14.814 10.0893 15.4016 10.3662 15.9814 10.4927C15.9816 10.8531 16.2738 11.1452 16.6343 11.1452C16.9787 11.1452 17.2608 10.8786 17.2855 10.5405C18.3135 10.3786 19.037 9.71171 19.1525 8.79789C19.2844 7.75381 18.6012 6.75204 17.4911 6.36164C17.4205 6.33682 17.3526 6.31273 17.2874 6.28948V4.70612C17.4207 4.76437 17.5152 4.84057 17.5672 4.91428C17.775 5.2089 18.1824 5.27929 18.4772 5.07145C18.7719 4.86355 18.8422 4.45617 18.6343 4.16142C18.3693 3.78571 17.8989 3.46915 17.2874 3.35064V3.31434C17.2874 2.95377 16.995 2.66138 16.6344 2.66138C16.2738 2.66138 15.9814 2.95377 15.9814 3.31434V3.39668C15.9184 3.41202 15.8548 3.42919 15.7904 3.44845C15.0517 3.66987 14.4944 4.38336 14.4353 5.1837C14.3767 5.97619 14.7991 6.66383 15.5652 7.02322C15.6597 7.06755 15.8021 7.12697 15.9814 7.19729V9.13861C15.7586 9.05673 15.5597 8.93508 15.4241 8.7676ZM17.8568 8.6342C17.8221 8.90877 17.6193 9.10851 17.2872 9.20613V7.69524C17.7278 7.93618 17.895 8.33168 17.8568 8.6342ZM15.7376 5.27994C15.7513 5.09365 15.8471 4.91442 15.9813 4.80152V5.76241C15.8047 5.64038 15.7229 5.47864 15.7376 5.27994Z" fill="#101010"/>
    <path d="M33.4221 31.2362L32.3257 24.8719C32.1687 23.9612 31.3825 23.3002 30.4561 23.3002H25.2973L24.2942 17.478C24.1373 16.5672 23.351 15.9062 22.4246 15.9062H11.8035C10.9687 15.9062 10.2206 16.464 9.98423 17.2625L8.19675 23.3002H3.7721C2.93729 23.3002 2.18919 23.8579 1.95282 24.6565L0.0268485 31.1617C-0.0315914 31.3592 0.00654146 31.5727 0.12982 31.7377C0.253099 31.9028 0.446963 32 0.652972 32H32.7786C32.9712 32 33.1539 31.915 33.278 31.7678C33.4021 31.6205 33.4548 31.426 33.4221 31.2362ZM22.4247 17.2122C22.7136 17.2122 22.9586 17.4173 23.0073 17.6997L23.9721 23.3002H12.8391L14.2298 17.6593C14.2947 17.396 14.5308 17.2122 14.804 17.2122H22.4247ZM16.8842 28.4782L16.263 24.872C16.2472 24.7807 16.2252 24.692 16.1973 24.6062H18.0314C18.0259 24.6228 18.0207 24.6397 18.0156 24.6566L16.8842 28.4782ZM11.2364 17.6333C11.3098 17.3853 11.543 17.2122 11.8035 17.2122H13.0003C12.986 17.2562 12.9732 17.301 12.9619 17.3467L11.4941 23.3002H9.55869L11.2364 17.6333ZM3.205 25.0272C3.27839 24.7793 3.51157 24.6061 3.7721 24.6061H4.96891C4.95454 24.6502 4.94174 24.695 4.93051 24.7406L3.46266 30.6941H1.52729L3.205 25.0272ZM4.80769 30.6941L6.19843 25.0531C6.26334 24.7899 6.49938 24.606 6.77258 24.606H14.3933C14.6822 24.606 14.9272 24.8111 14.9759 25.0936L15.9407 30.6941H4.80769ZM19.2678 25.0272C19.3412 24.7793 19.5744 24.6061 19.8349 24.6061H21.0317C21.0174 24.6502 21.0046 24.695 20.9933 24.7406L19.5255 30.6942H17.5901L19.2678 25.0272ZM20.8705 30.6941L22.2612 25.0531C22.3262 24.7899 22.5622 24.606 22.8354 24.606H30.4561C30.745 24.606 30.99 24.8111 31.0387 25.0936L32.0035 30.6941H20.8705Z" fill="#101010"/>
</svg>
