<svg width="32" height="32" viewBox="0 0 32 32" fill="none" xmlns="http://www.w3.org/2000/svg">
<path d="M15.8325 26.0946C19.3907 26.0946 22.2753 23.2101 22.2753 19.6518C22.2753 16.0935 19.3907 13.209 15.8325 13.209C12.2742 13.209 9.38965 16.0935 9.38965 19.6518C9.38965 23.2101 12.2742 26.0946 15.8325 26.0946Z" fill="#FCE476"/>
<path d="M16.8044 19.1451C16.6995 19.108 16.5999 19.0724 16.5054 19.0384V17.0302C16.7528 17.1056 16.9242 17.2315 17.0082 17.3513C17.2065 17.6339 17.5964 17.7023 17.8789 17.5039C18.1614 17.3056 18.2297 16.9158 18.0314 16.6332C17.7367 16.2133 17.2025 15.8628 16.5054 15.7493V15.6172C16.5054 15.272 16.2255 14.9922 15.8804 14.9922C15.5353 14.9922 15.2554 15.272 15.2554 15.6172V15.7967C15.1605 15.8178 15.064 15.8429 14.9661 15.8724C14.1819 16.1087 13.5899 16.8705 13.5266 17.725C13.464 18.5688 13.9134 19.302 14.7284 19.6864C14.8439 19.7409 15.025 19.8162 15.2555 19.9061V22.3109C14.9339 22.2149 14.6387 22.0539 14.4468 21.8157C14.2301 21.5468 13.8368 21.5045 13.5679 21.721C13.2991 21.9375 13.2567 22.331 13.4732 22.5998C13.9287 23.1652 14.601 23.4676 15.2555 23.5961V23.6843C15.2555 24.0295 15.5354 24.3093 15.8805 24.3093C16.2256 24.3093 16.5055 24.0295 16.5055 23.6843V23.6438C17.8865 23.469 18.4894 22.5706 18.5913 21.7687C18.7338 20.6463 17.999 19.5674 16.8044 19.1451ZM14.7732 17.8176C14.7962 17.5067 14.9981 17.2106 15.2554 17.096V18.553C14.8271 18.3484 14.7566 18.0404 14.7732 17.8176ZM17.3512 21.6112C17.3015 22.0027 16.9977 22.2741 16.5054 22.3773V20.3696C17.1582 20.6497 17.4036 21.1986 17.3512 21.6112Z" fill="#101010"/>
<path d="M31.0397 30.75H30.9957V28.8798C30.9957 28.5346 30.7158 28.2548 30.3707 28.2548H30.2059V25.9492C30.2059 25.604 29.9261 25.3242 29.5809 25.3242H28.8072V13.9711H29.5809C29.9261 13.9711 30.2059 13.6912 30.2059 13.3461V11.0404H30.3707C30.7158 11.0404 30.9957 10.7606 30.9957 10.4154V7.92025C30.9957 7.57506 30.7158 7.29525 30.3707 7.29525H29.0586L16.1371 0.0793125C15.9476 -0.0264375 15.717 -0.0264375 15.5276 0.0793125L2.60612 7.29519H1.294C0.948875 7.29519 0.669 7.575 0.669 7.92019V10.4154C0.669 10.7606 0.948875 11.0404 1.294 11.0404H1.45875V13.346C1.45875 13.6912 1.73862 13.971 2.08375 13.971H2.8575V25.3241H2.08375C1.73862 25.3241 1.45875 25.6039 1.45875 25.9491V28.2547H1.294C0.948875 28.2547 0.669 28.5346 0.669 28.8797V30.75H0.625C0.279875 30.75 0 31.0298 0 31.375C0 31.7202 0.279875 32 0.625 32H31.0397C31.3848 32 31.6647 31.7202 31.6647 31.375C31.6647 31.0298 31.3848 30.75 31.0397 30.75ZM28.9559 28.2548H24.4234V26.5742H28.9559V28.2548ZM8.49131 28.2548V25.9492C8.49131 25.604 8.21144 25.3242 7.86631 25.3242H7.0925V13.9711H7.86631C8.21144 13.9711 8.49131 13.6912 8.49131 13.3461V11.0404H23.1733V13.3461C23.1733 13.6912 23.4532 13.9711 23.7983 13.9711H24.5721V25.3242H23.7983C23.4532 25.3242 23.1733 25.604 23.1733 25.9492V28.2548H8.49131ZM27.5572 25.3242H25.8221V13.9711H27.5572V25.3242ZM28.9559 12.7211H24.4234V11.0404H28.9559V12.7211ZM15.8323 1.34088L26.4947 7.29525H5.16987L15.8323 1.34088ZM1.919 8.54519H29.7457V9.79037H1.919V8.54519ZM2.70875 11.0404H7.24131V12.7211H2.70875V11.0404ZM4.10744 13.9711H5.8425V25.3242H4.10744V13.9711ZM2.70875 26.5742H7.24131V28.2548H2.70875V26.5742ZM1.919 30.75V29.5048H29.7457V30.75H1.919Z" fill="#101010"/>
</svg>
