<svg width="36" height="32" viewBox="0 0 36 32" fill="none" xmlns="http://www.w3.org/2000/svg">
    <path d="M35.1594 25.6808H33.3525V5.92645C33.3525 4.74546 32.3917 3.78467 31.2107 3.78467H21.6538C21.267 3.78467 20.9534 4.0983 20.9534 4.48505C20.9534 4.87181 21.267 5.18544 21.6538 5.18544H31.2107C31.6193 5.18544 31.9517 5.51784 31.9517 5.92645V25.6808H23.7898C22.5775 25.6808 21.5536 26.5027 21.246 27.6186H14.6138C14.3062 26.5027 13.2823 25.6808 12.07 25.6808H3.90801V5.92645C3.90801 5.51784 4.24042 5.18544 4.64902 5.18544H13.2135C13.6003 5.18544 13.9139 4.87181 13.9139 4.48505C13.9139 4.0983 13.6003 3.78467 13.2135 3.78467H4.64902C3.46803 3.78467 2.50724 4.74546 2.50724 5.92645V25.6808H0.700386C0.313563 25.6808 0 25.9945 0 26.3812V29.7748C0 31.0017 0.99819 31.9999 2.22513 31.9999H33.6346C34.8616 31.9999 35.8598 31.0017 35.8598 29.7748V26.3812C35.8598 25.9944 35.5462 25.6808 35.1594 25.6808ZM34.459 29.7748C34.459 30.2293 34.0892 30.5992 33.6346 30.5992H2.22513C1.77058 30.5992 1.40077 30.2294 1.40077 29.7748V27.0816H12.07C12.7523 27.0816 13.3073 27.6367 13.3073 28.319C13.3073 28.7057 13.6209 29.0194 14.0077 29.0194H21.852C22.2389 29.0194 22.5524 28.7057 22.5524 28.319C22.5524 27.6367 23.1075 27.0816 23.7898 27.0816H34.459V29.7748Z" fill="#101010"/>
    <path d="M13.4822 18.7785L7.58113 22.9988C7.26645 23.2238 7.19382 23.6613 7.41886 23.9759C7.55557 24.167 7.77073 24.2689 7.98911 24.2689C8.13017 24.2689 8.27249 24.2265 8.39596 24.1381L13.9979 20.1319L19.9608 22.2846C20.194 22.3687 20.4546 22.3233 20.6456 22.165L26.7054 17.1426C26.7604 17.3856 26.9437 17.5914 27.2006 17.6632C27.2635 17.6807 27.3268 17.6891 27.3891 17.6891C27.6956 17.689 27.977 17.4862 28.0634 17.1767L28.5459 15.4462C28.6095 15.2182 28.5536 14.9735 28.3974 14.7957C28.2411 14.6179 28.006 14.5309 27.7714 14.5649L25.992 14.8214C25.6091 14.8766 25.3435 15.2317 25.3987 15.6145C25.4306 15.8357 25.5627 16.0178 25.7423 16.1215L20.06 20.8311L14.1276 18.6894C13.9107 18.6112 13.6695 18.6445 13.4822 18.7785Z" fill="#101010"/>
    <path d="M17.8774 16.7377C22.4994 16.7377 26.2462 12.9908 26.2462 8.36884C26.2462 3.74686 22.4994 0 17.8774 0C13.2554 0 9.50854 3.74686 9.50854 8.36884C9.50854 12.9908 13.2554 16.7377 17.8774 16.7377Z" fill="#FCE476"/>
    <path d="M18.9676 7.80215C18.85 7.76062 18.7384 7.72077 18.6325 7.68259V5.43212C18.9097 5.51658 19.1018 5.65778 19.196 5.79211C19.4181 6.10876 19.8549 6.18531 20.1716 5.96308C20.4883 5.74092 20.5648 5.30415 20.3426 4.98744C20.0124 4.51678 19.4137 4.124 18.6325 3.99674V3.84882C18.6325 3.46207 18.3189 3.14844 17.9321 3.14844C17.5452 3.14844 17.2317 3.46207 17.2317 3.84882V4.05004C17.1253 4.07365 17.0172 4.10187 16.9075 4.13486C16.0287 4.39961 15.3653 5.25338 15.2943 6.21094C15.2242 7.15654 15.7277 7.97816 16.6411 8.4089C16.7707 8.47004 16.9736 8.55437 17.2317 8.65501V11.35C16.8713 11.2424 16.5404 11.0619 16.3255 10.7949C16.0828 10.4937 15.6419 10.4462 15.3406 10.6888C15.0394 10.9315 14.9919 11.3724 15.2345 11.6737C15.7449 12.3072 16.4982 12.6461 17.2317 12.7901V12.8889C17.2317 13.2757 17.5452 13.5893 17.9321 13.5893C18.3189 13.5893 18.6325 13.2757 18.6325 12.8889V12.8435C20.1801 12.6476 20.8557 11.641 20.9699 10.7422C21.1297 9.48441 20.3063 8.2754 18.9676 7.80215ZM16.6913 6.31453C16.7172 5.96623 16.9435 5.63432 17.2318 5.50601V7.13868C16.7518 6.90944 16.6728 6.56429 16.6913 6.31453ZM19.5804 10.5657C19.5246 11.0045 19.1841 11.3085 18.6325 11.4243V9.17435C19.3641 9.48819 19.639 10.1033 19.5804 10.5657Z" fill="#101010"/>
</svg>
