<svg width="39" height="32" viewBox="0 0 39 32" fill="none" xmlns="http://www.w3.org/2000/svg">
    <path d="M34.2466 11.1494V6.17836C33.128 6.17836 32.2213 5.27163 32.2213 4.15307C32.2213 4.11441 32.2224 4.07598 32.2245 4.03784H19.3599C19.3621 4.07598 19.3632 4.11441 19.3632 4.15307C19.3632 5.27163 18.4565 6.17836 17.3379 6.17836V11.1494C18.4565 11.1494 19.3632 12.0561 19.3632 13.1747H32.2214C32.2213 12.0561 33.128 11.1494 34.2466 11.1494Z" fill="#FCE476"/>
    <path d="M31.3652 20.5726L27.283 23.1149C26.5829 20.9764 24.5922 19.4722 22.2979 19.4416L18.1478 19.3572C15.7989 17.9786 12.781 18.5151 11.0457 20.6502C10.5985 21.2003 10.2316 21.7199 9.95064 22.2004H8.88599V21.6375C8.88599 21.2245 8.55115 20.8897 8.13824 20.8897H0.747753C0.334844 20.8897 0 21.2245 0 21.6375V30.47C0 30.883 0.334844 31.2177 0.747753 31.2177H8.13824C8.55115 31.2177 8.88599 30.883 8.88599 30.47V29.5129L19.1518 31.7669C19.849 31.9232 20.5574 32 21.2623 32C23.0413 31.9999 24.7968 31.5103 26.2832 30.5724C26.3409 30.536 32.6632 26.25 37.9567 22.661C38.1359 22.5395 38.2537 22.3464 38.2795 22.1315C38.3054 21.9166 38.2369 21.7011 38.0917 21.5405C36.3764 19.6439 33.5494 19.2356 31.3652 20.5726ZM7.39049 29.7223H1.49551V22.3853H7.39049V29.7223ZM25.4781 29.3122C23.7356 30.409 21.5495 30.7719 19.4757 30.307L8.88599 27.9819V23.6961H10.3942C10.6766 23.6961 10.935 23.537 11.0621 23.2847C11.3112 22.7901 11.6961 22.2212 12.2062 21.5936C13.5075 19.9925 15.795 19.6214 17.5269 20.7305C17.6429 20.8048 17.7772 20.8456 17.9149 20.8484L22.2728 20.937C23.9172 20.9589 25.343 22.0303 25.8538 23.5567H16.8097C16.3968 23.5567 16.062 23.8915 16.062 24.3045C16.062 24.7174 16.3968 25.0522 16.8097 25.0522H26.7875C26.9272 25.0522 27.0642 25.0131 27.1828 24.9392L32.1507 21.8452C33.4619 21.0426 35.0994 21.1177 36.3213 21.9631C32.2668 24.7121 25.7347 29.1401 25.4781 29.3122Z" fill="#101010"/>
    <path d="M5.09858 26.1875C4.68567 26.1875 4.35083 26.5223 4.35083 26.9353V27.4846C4.35083 27.8976 4.68567 28.2324 5.09858 28.2324C5.51149 28.2324 5.84634 27.8976 5.84634 27.4846V26.9353C5.84634 26.5223 5.51157 26.1875 5.09858 26.1875Z" fill="#101010"/>
    <path d="M36.2439 0H15.3402C14.2151 0 13.2998 0.915324 13.2998 2.04039V15.1722C13.2998 16.2973 14.2151 17.2126 15.3402 17.2126H36.2439C37.369 17.2126 38.2843 16.2973 38.2843 15.1722V2.04039C38.2843 0.915324 37.369 0 36.2439 0ZM36.7888 15.1722C36.7888 15.4726 36.5444 15.7171 36.2439 15.7171H15.3402C15.0397 15.7171 14.7953 15.4726 14.7953 15.1722V2.04039C14.7953 1.73995 15.0398 1.49551 15.3402 1.49551H36.2439C36.5444 1.49551 36.7888 1.73995 36.7888 2.04039V15.1722Z" fill="#101010"/>
    <path d="M25.7901 6.25488C24.4935 6.25488 23.4387 7.30974 23.4387 8.60634C23.4387 9.90294 24.4935 10.9578 25.7901 10.9578C27.0867 10.9578 28.1416 9.90294 28.1416 8.60634C28.1416 7.30974 27.0866 6.25488 25.7901 6.25488ZM25.7901 9.46229C25.3181 9.46229 24.9342 9.07832 24.9342 8.60634C24.9342 8.13436 25.3182 7.75039 25.7901 7.75039C26.2622 7.75039 26.6461 8.13436 26.6461 8.60634C26.6461 9.07832 26.2621 9.46229 25.7901 9.46229Z" fill="#101010"/>
</svg>
